<svg fill="none" height="400" viewBox="0 0 1000 400" width="1000" xmlns="http://www.w3.org/2000/svg" xmlns:xlink="http://www.w3.org/1999/xlink"><linearGradient id="a" gradientUnits="userSpaceOnUse" x1="229.91" x2="155.29" y1="277.85" y2="148.61"><stop offset="0" stop-color="#138f24"/><stop offset=".33" stop-color="#fff"/><stop offset=".61" stop-color="#fff"/><stop offset="1" stop-color="#ff671f"/></linearGradient><clipPath id="b"><path d="m0 0h1000v400h-1000z"/></clipPath><g clip-path="url(#b)"><path d="m0 0h1000v400h-1000z" fill="#000"/><path d="m118.47 133.5v133h133v-133zm125.5 33.74c-1 24-10 94-91.1 92.76h-27.89v-120h120l-1 27.24z" fill="url(#a)"/><path d="m294.26 189.94v-56.44h-12.41v56.44zm45.44-18.57-23.56-37.87h-12.33v56.44h11.62v-37.79h.16l23.48 37.79h12.41v-56.44h-11.62v37.87z" fill="#fff"/><path d="m404.52 133.5h9.01v8.54h-9.01zm0 15.57h9.01v40.87h-9.01z" fill="#999"/><path clip-rule="evenodd" d="m397.41 190.01h-.02v-56.43h-9.01v20.87h-.16c-.69-1.11-1.54-2.07-2.57-2.89s-2.15-1.49-3.36-2.02c-1.22-.53-2.48-.91-3.8-1.15-1.31-.24-2.61-.36-3.87-.36-2.21 0-4.39.41-6.52 1.23-2.13.81-4.03 2.09-5.69 3.83s-2.99 3.95-3.99 6.64-1.5 5.88-1.5 9.57c0 3.06.4 5.92 1.19 8.58s1.98 4.97 3.56 6.92 3.57 3.49 5.97 4.62 5.2 1.7 8.42 1.7c2.58 0 5.03-.51 7.35-1.54s4.09-2.73 5.3-5.1h.16v5.53h8.52v.01zm-31.46-19.995c0 1.738.22 3.447.67 5.135.45 1.69 1.13 3.19 2.05 4.51s2.09 2.37 3.52 3.16c1.42.79 3.11 1.19 5.06 1.19s3.73-.42 5.18-1.27c1.45-.84 2.64-1.95 3.56-3.32s1.61-2.91 2.06-4.62.67-3.46.67-5.26c0-4.53-1.01-8.06-3.04-10.59s-4.78-3.79-8.26-3.79c-2.11 0-3.89.43-5.34 1.3s-2.64 2-3.56 3.4-1.58 2.98-1.98 4.74c-.4 1.768-.59 3.567-.59 5.415z" fill="#999" fill-rule="evenodd"/><path d="m447.529 162.74.001.01-.02-.01z" fill="#999"/><path d="m444.49 157.02c1.658 1.288 2.667 3.195 3.039 5.72h8.991c-.21-2.53-.85-4.71-1.9-6.56-1.05-1.84-2.41-3.37-4.07-4.58s-3.56-2.12-5.69-2.73c-2.14-.61-4.39-.91-6.76-.91-3.37 0-6.31.57-8.81 1.7s-4.59 2.68-6.28 4.66-2.96 4.31-3.8 7-1.26 5.62-1.26 8.62.43 5.8 1.3 8.38c.86 2.58 2.14 4.81 3.83 6.68s3.76 3.35 6.21 4.43 5.28 1.62 8.5 1.62c5.27 0 9.5-1.41 12.69-4.23 3.19-2.81 5.21-6.89 6.05-12.21h-9.01c-.42 2.95-1.49 5.25-3.2 6.88s-3.88 2.45-6.52 2.45c-1.95 0-3.61-.41-4.98-1.23-1.37-.81-2.49-1.88-3.36-3.2s-1.5-2.82-1.9-4.51c-.39-1.69-.59-3.37-.59-5.06 0-3.11.37-5.63 1.11-7.55.74-1.93 1.66-3.43 2.77-4.51s2.32-1.81 3.64-2.21c1.32-.39 2.56-.59 3.72-.59 2.52 0 4.62.65 6.28 1.94z" fill="#999"/><path clip-rule="evenodd" d="m312.98 203.77 22.9 61.23h-13.98l-4.63-13.63h-22.9l-4.8 13.63h-13.55l23.15-61.23zm.77 37.56-7.72-22.47h-.17l-7.98 22.47z" fill="#fff" fill-rule="evenodd"/><path d="m358.4 228.63c-1.94 0-3.57.44-4.89 1.33s-2.39 2.03-3.22 3.43-1.41 2.94-1.76 4.63c-.34 1.69-.51 3.36-.51 5.02s.17 3.23.51 4.89.9 3.16 1.67 4.5a9.59 9.59 0 0 0 3.13 3.3c1.31.86 2.92 1.29 4.8 1.29 2.92 0 5.16-.81 6.73-2.44s2.56-3.82 2.96-6.56h11.75c-.8 5.89-3.09 10.38-6.86 13.46-3.77 3.09-8.6 4.63-14.49 4.63-3.32 0-6.36-.56-9.13-1.67s-5.13-2.67-7.07-4.67-3.46-4.39-4.55-7.16-1.63-5.82-1.63-9.13.5-6.62 1.5-9.56 2.47-5.49 4.42-7.63 4.32-3.82 7.12-5.02 6-1.8 9.6-1.8c2.63 0 5.16.34 7.59 1.03s4.6 1.73 6.52 3.13a16.63 16.63 0 0 1 4.67 5.23c1.2 2.09 1.89 4.56 2.06 7.42h-11.92c-.8-5.09-3.8-7.63-9-7.63zm42.82 1.33c1.32-.89 2.95-1.33 4.89-1.33l.01.02c5.2 0 8.2 2.54 9 7.63h11.92c-.17-2.86-.86-5.33-2.06-7.42s-2.76-3.83-4.67-5.23c-1.92-1.4-4.09-2.44-6.52-3.13s-4.96-1.03-7.59-1.03c-3.61 0-6.81.6-9.61 1.8s-5.18 2.88-7.12 5.02c-1.95 2.14-3.42 4.69-4.42 7.63s-1.5 6.25-1.5 9.56.54 6.36 1.63 9.13c1.08 2.77 2.6 5.16 4.54 7.16 1.95 2 4.31 3.56 7.08 4.67s5.81 1.67 9.13 1.67c5.89 0 10.72-1.54 14.49-4.63 3.77-3.08 6.06-7.57 6.86-13.46h-11.75c-.4 2.74-1.39 4.93-2.96 6.56s-3.81 2.44-6.73 2.44c-1.88 0-3.49-.43-4.8-1.29a9.59 9.59 0 0 1 -3.13-3.3c-.77-1.34-1.33-2.84-1.67-4.5a23.89 23.89 0 0 1 -.51-4.89c0-1.66.17-3.33.51-5.02.35-1.69.93-3.23 1.76-4.63s1.9-2.54 3.22-3.43z" fill="#fff"/><g fill="#999"><path d="m489.22 203.77h-9.78v61.23h9.78z"/><path clip-rule="evenodd" d="m441.65 250.33c-.49-1.6-.73-3.25-.73-4.97l.01.02h32.59c.4-3.32.19-6.53-.64-9.65s-2.16-5.88-3.99-8.28-4.13-4.33-6.9-5.79-5.9-2.19-9.39-2.19c-3.32 0-6.29.63-8.92 1.89s-4.87 2.96-6.73 5.1-3.29 4.63-4.29 7.46-1.5 5.82-1.5 8.96c0 3.43.47 6.57 1.41 9.43.94 2.85 2.34 5.31 4.2 7.37s4.13 3.66 6.82 4.8c2.69 1.15 5.77 1.72 9.26 1.72 2.4 0 4.7-.33 6.9-.99s4.19-1.63 5.96-2.92 3.28-2.87 4.54-4.76 2.15-4.03 2.66-6.43h-9.26c-.86 2.46-2.16 4.3-3.9 5.53s-4.04 1.84-6.9 1.84c-2.06 0-3.83-.35-5.32-1.07-1.49-.71-2.72-1.67-3.69-2.87-.98-1.2-1.71-2.6-2.19-4.2zm21.09-15.86c.55 1.43.87 2.92.99 4.46h-22.81c.06-1.66.39-3.2.99-4.63s1.4-2.67 2.4-3.73 2.2-1.89 3.6-2.49 3.01-.9 4.67-.9 3.16.33 4.5.99c1.34.65 2.49 1.51 3.43 2.57s1.69 2.3 2.23 3.73zm40.54 10.76c.002 1.713.242 3.356.73 4.95.48 1.6 1.21 3 2.19 4.2.97 1.2 2.2 2.16 3.69 2.87 1.49.72 3.26 1.07 5.32 1.07 2.86 0 5.16-.61 6.9-1.84s3.04-3.07 3.9-5.53h9.26c-.51 2.4-1.4 4.54-2.66 6.43a18.431 18.431 0 0 1 -4.55 4.76c-1.77 1.29-3.76 2.26-5.96 2.92s-4.5.99-6.9.99c-3.49 0-6.57-.57-9.26-1.72-2.69-1.14-4.96-2.74-6.82-4.8s-3.26-4.52-4.2-7.37c-.94-2.86-1.41-6-1.41-9.43 0-3.14.5-6.13 1.5-8.96s2.43-5.32 4.29-7.46 4.1-3.84 6.73-5.1 5.6-1.89 8.92-1.89c3.49 0 6.62.73 9.39 2.19s5.07 3.39 6.9 5.79 3.16 5.16 3.99 8.28 1.04 6.33.64 9.65zm22.81-6.45a15.43 15.43 0 0 0 -.99-4.46c-.54-1.43-1.29-2.67-2.23-3.73s-2.09-1.92-3.43-2.57c-1.34-.66-2.85-.99-4.5-.99s-3.27.3-4.67.9-2.6 1.43-3.6 2.49-1.8 2.3-2.4 3.73-.93 2.97-.99 4.63z" fill-rule="evenodd"/><path d="m550.62 220.77h-9.18v44.35h9.78v-21.1c0-2.46.31-4.63.94-6.52s1.48-3.47 2.57-4.76 2.36-2.26 3.82-2.92c1.45-.66 3.01-.99 4.67-.99.69 0 1.38.04 2.1.13.71.09 1.41.19 2.1.3v-9.43c-.46-.05-.9-.11-1.33-.17s-1.22-.09-2.36-.09c-1.48 0-2.94.29-4.37.86s-2.73 1.33-3.9 2.27-2.17 1.99-3 3.13c-.83 1.15-1.38 2.32-1.67 3.52h-.17z"/><path clip-rule="evenodd" d="m607.95 255.13c0 1.2.16 2.06.47 2.57s.93.77 1.84.77h1.03c.4 0 .86-.06 1.37-.17v6.77c-.34.11-.79.24-1.33.39-.54.14-1.1.27-1.67.39-.57.11-1.14.2-1.71.26s-1.06.09-1.46.09c-2 0-3.66-.4-4.97-1.2-1.32-.8-2.17-2.2-2.57-4.2-1.94 1.89-4.33 3.26-7.16 4.12s-5.56 1.29-8.19 1.29c-2 0-3.92-.27-5.75-.82-1.83-.54-3.45-1.34-4.85-2.4s-2.52-2.4-3.34-4.03c-.83-1.63-1.24-3.53-1.24-5.7 0-2.74.5-4.97 1.5-6.69s2.32-3.06 3.94-4.03c1.63-.97 3.46-1.67 5.49-2.1s4.07-.76 6.13-.99c1.77-.34 3.46-.59 5.06-.73s3.01-.39 4.24-.73 2.2-.87 2.92-1.59c.71-.71 1.07-1.79 1.07-3.22 0-1.26-.3-2.29-.9-3.09s-1.34-1.41-2.23-1.84-1.87-.71-2.96-.86c-1.09-.14-2.12-.21-3.09-.21-2.74 0-5 .57-6.77 1.72-1.77 1.14-2.77 2.92-3 5.32h-9.78c.17-2.86.86-5.23 2.06-7.12s2.73-3.4 4.59-4.55c1.86-1.14 3.96-1.94 6.3-2.4s4.74-.69 7.2-.69c2.17 0 4.32.23 6.43.69s4.02 1.2 5.7 2.23 3.04 2.36 4.07 3.99 1.54 3.62 1.54 5.96v22.81zm-9.78-12.35c-1.49.97-3.32 1.56-5.49 1.76s-4.34.5-6.52.9c-1.03.17-2.03.42-3 .73-.97.32-1.83.74-2.57 1.29-.74.54-1.33 1.26-1.76 2.14-.43.89-.64 1.96-.64 3.22 0 1.09.31 2 .94 2.74s1.39 1.33 2.27 1.76c.89.43 1.86.73 2.92.9s2.02.26 2.87.26c1.09 0 2.26-.14 3.52-.43s2.44-.77 3.56-1.46a9.434 9.434 0 0 0 2.79-2.62c.74-1.06 1.12-2.36 1.12-3.9v-7.29z" fill-rule="evenodd"/><path d="m619.23 220.66h-7.37v7.3h7.37v26.16c.06 1.83.24 3.46.56 4.89.31 1.43.91 2.62 1.8 3.56s2.12 1.66 3.69 2.14c1.57.49 3.65.73 6.22.73 1.08 0 2.14-.06 3.17-.17l.682-.074.414-.045c.678-.074 1.368-.15 2.074-.221v-7.55c-.69.17-1.37.27-2.06.3s-1.37.04-2.06.04c-1.08 0-1.94-.13-2.57-.39-.62-.26-1.1-.65-1.41-1.16-.31-.52-.51-1.15-.6-1.89s-.13-1.63-.13-2.66v-23.67h8.83v-7.29h-8.83v-13.29h-9.78zm23.83-16.89h9.78v9.26h-9.78zm0 16.89h9.78v44.33h-9.78z"/><path clip-rule="evenodd" d="m672.13 264.44c2.78 1.17 5.93 1.76 9.48 1.76s6.71-.59 9.48-1.76c2.77-1.18 5.11-2.79 7.03-4.85 1.91-2.05 3.37-4.51 4.37-7.37s1.5-6.05 1.5-9.43-.5-6.49-1.5-9.35c-1-2.85-2.45-5.31-4.37-7.37-1.91-2.06-4.26-3.68-7.03-4.85-2.78-1.17-5.93-1.76-9.48-1.76s-6.71.59-9.48 1.76c-2.77 1.18-5.12 2.79-7.03 4.85-1.91 2.05-3.37 4.51-4.37 7.37s-1.5 5.92-1.5 9.35.5 6.57 1.5 9.43c1 2.85 2.45 5.31 4.37 7.37 1.91 2.06 4.26 3.68 7.03 4.85zm15.14-7.33c-1.6.91-3.49 1.37-5.66 1.37s-4.06-.45-5.66-1.37c-1.6-.91-2.91-2.11-3.94-3.6s-1.79-3.16-2.27-5.02c-.49-1.85-.73-3.81-.73-5.7s.24-3.77.73-5.66c.48-1.89 1.24-3.56 2.27-5.02 1.02-1.46 2.34-2.64 3.94-3.56 1.6-.91 3.49-1.37 5.66-1.37s4.06.46 5.66 1.37c1.6.92 2.91 2.1 3.94 3.56s1.78 3.13 2.27 5.02.73 3.72.73 5.66-.24 3.84-.73 5.7c-.48 1.86-1.24 3.53-2.27 5.02a11.74 11.74 0 0 1 -3.94 3.6z" fill-rule="evenodd"/><path d="m708.71 221.45h9.26v6.52l.17.17c1.49-2.46 3.43-4.39 5.83-5.79s5.06-2.1 7.98-2.1c4.86 0 8.69 1.26 11.49 3.77 2.8 2.52 4.2 6.29 4.2 11.32v30.44h-9.78v-27.87c-.12-3.49-.86-6.02-2.23-7.59s-3.52-2.36-6.43-2.36c-1.66 0-3.14.3-4.46.9s-2.43 1.43-3.35 2.49c-.91 1.06-1.63 2.3-2.14 3.73s-.77 2.95-.77 4.54v26.16h-9.78v-44.34zm57.04-17.68h-9.78v9.26h9.78zm0 16.89h-9.78v44.33h9.78zm16.01 30.1c.29 2.86 1.37 4.86 3.26 6s4.14 1.72 6.77 1.72c.91 0 1.96-.07 3.13-.21s2.27-.41 3.3-.81 1.87-.99 2.53-1.76.96-1.79.9-3.04c-.06-1.26-.51-2.29-1.37-3.09s-1.96-1.44-3.3-1.93c-1.34-.48-2.87-.9-4.59-1.24-1.71-.34-3.46-.71-5.23-1.11-1.83-.4-3.59-.89-5.27-1.46-1.69-.57-3.2-1.34-4.55-2.32a10.68 10.68 0 0 1 -3.22-3.73c-.8-1.51-1.2-3.39-1.2-5.62 0-2.4.59-4.42 1.76-6.05s2.66-2.94 4.46-3.94 3.8-1.7 6-2.1 4.3-.6 6.3-.6c2.29 0 4.47.24 6.56.73s3.97 1.27 5.66 2.36 3.09 2.5 4.2 4.25c1.11 1.74 1.81 3.85 2.1 6.3h-10.2c-.46-2.34-1.53-3.92-3.22-4.72s-3.62-1.2-5.79-1.2c-.69 0-1.5.06-2.44.17-.94.12-1.83.33-2.66.64s-1.53.77-2.1 1.37-.86 1.39-.86 2.36c0 1.2.41 2.17 1.24 2.92.83.74 1.91 1.36 3.26 1.84 1.34.49 2.87.9 4.59 1.24 1.666.331 3.397.7 5.177 1.08h.002l.141.03c1.77.4 3.52.89 5.23 1.46 1.72.57 3.24 1.34 4.59 2.32 1.34.97 2.43 2.2 3.26 3.69s1.24 3.32 1.24 5.49c0 2.63-.6 4.86-1.8 6.69s-2.76 3.32-4.67 4.46c-1.92 1.14-4.05 1.97-6.39 2.49-2.34.51-4.66.77-6.95.77-2.8 0-5.39-.32-7.76-.94-2.37-.63-4.43-1.59-6.17-2.87a13.892 13.892 0 0 1 -4.12-4.8c-1-1.91-1.53-4.19-1.59-6.82h9.78zm35.47-30.1h-.01l.01-.01zm0 0v44.32h9.78v-26.33c0-1.83.28-3.46.82-4.89s1.25-2.63 2.14-3.6a9.116 9.116 0 0 1 6.73-3c2.97 0 5.01.79 6.13 2.36 1.11 1.57 1.67 3.9 1.67 6.99v28.47h9.78v-25.98c0-3.78.74-6.69 2.23-8.75 1.48-2.06 3.88-3.09 7.2-3.09 1.89 0 3.37.29 4.46.86 1.08.57 1.9 1.38 2.44 2.44.55 1.06.87 2.31.99 3.77.11 1.46.17 3.08.17 4.85v25.9h9.77v-30.61c0-5.37-1.3-9.2-3.9-11.49s-6.24-3.43-10.93-3.43c-3.26 0-5.98.66-8.15 1.97-2.18 1.31-4.09 3.11-5.75 5.4-.97-2.51-2.61-4.37-4.93-5.57-2.31-1.2-4.81-1.8-7.5-1.8-1.78 0-3.35.19-4.72.56-1.38.37-2.59.87-3.65 1.5s-2.01 1.41-2.87 2.32a23.9 23.9 0 0 0 -2.4 3h-.26v-6.17z"/></g></g></svg>